<svg width="32" height="32" viewBox="0 0 32 32" fill="none" xmlns="http://www.w3.org/2000/svg">
<rect width="32" height="32" rx="16" fill="#A6B4FD"/>
<path d="M11.16 12.52C11.24 11.28 11.7133 10.3133 12.58 9.62C13.46 8.92667 14.58 8.58 15.94 8.58C16.8733 8.58 17.68 8.74667 18.36 9.08C19.04 9.41333 19.5533 9.86667 19.9 10.44C20.2467 11.0133 20.42 11.66 20.42 12.38C20.42 13.2067 20.2 13.9133 19.76 14.5C19.32 15.0867 18.7933 15.48 18.18 15.68V15.76C18.9667 16 19.58 16.44 20.02 17.08C20.46 17.7067 20.68 18.5133 20.68 19.5C20.68 20.2867 20.5 20.9867 20.14 21.6C19.78 22.2133 19.2467 22.7 18.54 23.06C17.8333 23.4067 16.9867 23.58 16 23.58C14.56 23.58 13.3733 23.2133 12.44 22.48C11.52 21.7333 11.0267 20.6667 10.96 19.28H13.16C13.2133 19.9867 13.4867 20.5667 13.98 21.02C14.4733 21.46 15.14 21.68 15.98 21.68C16.7933 21.68 17.42 21.46 17.86 21.02C18.3 20.5667 18.52 19.9867 18.52 19.28C18.52 18.3467 18.22 17.6867 17.62 17.3C17.0333 16.9 16.1267 16.7 14.9 16.7H14.38V14.82H14.92C16 14.8067 16.82 14.6267 17.38 14.28C17.9533 13.9333 18.24 13.3867 18.24 12.64C18.24 12 18.0333 11.4933 17.62 11.12C17.2067 10.7333 16.62 10.54 15.86 10.54C15.1133 10.54 14.5333 10.7333 14.12 11.12C13.7067 11.4933 13.46 11.96 13.38 12.52H11.16Z" fill="#051EA3"/>
</svg>
