<svg width="32" height="32" viewBox="0 0 32 32" fill="none" xmlns="http://www.w3.org/2000/svg">
<rect width="32" height="32" rx="16" fill="#A6B4FD"/>
<path d="M12.46 20.4C13.74 19.2933 14.7467 18.3867 15.48 17.68C16.2267 16.96 16.8467 16.2133 17.34 15.44C17.8333 14.6667 18.08 13.8933 18.08 13.12C18.08 12.32 17.8867 11.6933 17.5 11.24C17.1267 10.7867 16.5333 10.56 15.72 10.56C14.9333 10.56 14.32 10.8133 13.88 11.32C13.4533 11.8133 13.2267 12.48 13.2 13.32H11C11.04 11.8 11.4933 10.64 12.36 9.84C13.24 9.02667 14.3533 8.62 15.7 8.62C17.1533 8.62 18.2867 9.02 19.1 9.82C19.9267 10.62 20.34 11.6867 20.34 13.02C20.34 13.98 20.0933 14.9067 19.6 15.8C19.12 16.68 18.54 17.4733 17.86 18.18C17.1933 18.8733 16.34 19.68 15.3 20.6L14.4 21.4H20.74V23.3H11.02V21.64L12.46 20.4Z" fill="#051EA3"/>
</svg>
