<svg width="28" height="28" viewBox="0 0 28 28" fill="none" xmlns="http://www.w3.org/2000/svg">
<path d="M13.7294 6.5H8.45166V21.5H15.3961C16.7067 21.4953 17.9389 20.8744 18.7222 19.8234C19.5054 18.7724 19.7486 17.4143 19.3785 16.157C19.0084 14.8995 18.0683 13.8896 16.8406 13.4306C17.5538 12.6258 17.9284 11.5764 17.8859 10.502C17.8435 9.42743 17.3872 8.41096 16.6125 7.66518C15.8379 6.91939 14.8047 6.50184 13.7293 6.5001L13.7294 6.5ZM10.1185 8.16657H13.7294C14.6227 8.16657 15.4479 8.64322 15.8945 9.41672C16.3411 10.1902 16.3411 11.1432 15.8945 11.9166C15.4479 12.6901 14.6226 13.1666 13.7294 13.1666H10.1185V8.16657ZM17.8963 17.3332C17.8963 17.9963 17.6329 18.6322 17.164 19.1011C16.6953 19.5698 16.0593 19.8334 15.3963 19.8334H10.1185V14.8334H15.3963C16.0593 14.8334 16.6953 15.0967 17.164 15.5656C17.6329 16.0343 17.8963 16.6703 17.8963 17.3333V17.3332Z" fill="#25262C"/>
</svg>
