<svg width="28" height="28" viewBox="0 0 28 28" fill="none" xmlns="http://www.w3.org/2000/svg">
<path d="M11 8.09259H22V9.87259H11V8.09259Z" fill="#25262C"/>
<path d="M7.77766 8.98153C7.77766 9.47239 7.37981 9.87046 6.88894 9.87046C6.39787 9.87046 6 9.4724 6 8.98153C6 8.49067 6.39785 8.09259 6.88894 8.09259C7.37979 8.09259 7.77766 8.49065 7.77766 8.98153Z" fill="#25262C"/>
<path d="M11 13H22V14.78H11V13Z" fill="#25262C"/>
<path d="M7.77766 13.8889C7.77766 14.3798 7.37981 14.7779 6.88894 14.7779C6.39787 14.7779 6 14.3798 6 13.8889C6 13.3981 6.39785 13 6.88894 13C7.37979 13 7.77766 13.3981 7.77766 13.8889Z" fill="#25262C"/>
<path d="M10.7407 18.1295H21.9999V19.9074H10.7407V18.1295Z" fill="#25262C"/>
<path d="M7.77766 19.0184C7.77766 19.5095 7.37981 19.9074 6.88894 19.9074C6.39787 19.9074 6 19.5095 6 19.0184C6 18.5276 6.39785 18.1297 6.88894 18.1297C7.37979 18.1297 7.77766 18.5276 7.77766 19.0184Z" fill="#25262C"/>
</svg>
