<svg width="28" height="28" viewBox="0 0 28 28" fill="none" xmlns="http://www.w3.org/2000/svg">
<path d="M18.872 16.8378C17.9909 17.6429 17.497 18.7374 17.5 19.8778C17.5 20.1048 17.5983 20.3224 17.7735 20.4828C17.9484 20.6433 18.1858 20.7334 18.4334 20.7334H22.1667V19.0222H19.5254C19.6651 18.656 19.8939 18.3234 20.1942 18.0499L21.2613 17.0717C21.6445 16.7226 21.86 16.2475 21.8602 15.7522C21.8606 15.2569 21.6456 14.7819 21.2628 14.4321C20.8802 14.0824 20.3613 13.8871 19.8209 13.8889H17.5V15.6001H19.8209C19.8871 15.6015 19.9462 15.6387 19.9718 15.6948C19.9974 15.7507 19.9846 15.8153 19.939 15.8597L18.872 16.8378Z" fill="#25262C"/>
<path d="M15.9069 21.1111V6.88885H14.1292V12.8148H7.61069V6.88885H5.83301V21.1111H7.61069V14.5926H14.1292V21.1111H15.9069Z" fill="#25262C"/>
</svg>
