<svg width="28" height="28" viewBox="0 0 28 28" fill="none" xmlns="http://www.w3.org/2000/svg">
<path d="M9.20005 12.7778V7.88879C9.20005 7.69423 9.11578 7.50769 8.96585 7.37025C8.81574 7.23264 8.61223 7.1554 8.39998 7.1554H6V8.62219H7.60014V12.7778L9.20005 12.7778Z" fill="#25262C"/>
<path d="M12.1328 7.39987H21.9998V8.86667H12.1328V7.39987Z" fill="#25262C"/>
<path d="M12.1328 11.3111H21.9998V12.7779H12.1328V11.3111Z" fill="#25262C"/>
<path d="M12.1328 15.2224H21.9998V16.6891H12.1328V15.2224Z" fill="#25262C"/>
<path d="M12.1328 19.1335H21.9998V20.6003H12.1328V19.1335Z" fill="#25262C"/>
<path d="M7.176 17.5054C6.42079 18.1955 5.99739 19.1337 6.00001 20.1112C6.00001 20.3058 6.08428 20.4923 6.23439 20.6298C6.38432 20.7674 6.58783 20.8446 6.80008 20.8446H10.0001V19.3778H7.73611C7.8559 19.0639 8.05196 18.7788 8.30941 18.5443L9.22406 17.7059C9.55256 17.4066 9.73726 16.9994 9.73745 16.5749C9.73783 16.1503 9.55348 15.7431 9.22534 15.4433C8.89739 15.1436 8.45261 14.9761 7.98945 14.9776H6.00001V16.4444H7.98945C8.04618 16.4456 8.09678 16.4775 8.11873 16.5256C8.14068 16.5735 8.1297 16.6289 8.09064 16.667L7.176 17.5054Z" fill="#25262C"/>
</svg>
